<svg width="88" height="67" viewBox="0 0 88 67" fill="none" xmlns="http://www.w3.org/2000/svg">
<path d="M72.4448 7.2909C67.0279 4.81345 61.2752 3.0078 55.2705 2C54.5143 3.30175 53.6746 5.06536 53.0868 6.45112C46.6999 5.52725 40.359 5.52725 34.0603 6.45112C33.4724 5.06536 32.5906 3.30175 31.8767 2C25.83 3.0078 20.0771 4.81345 14.6981 7.2909C3.82227 23.3317 0.882837 38.9944 2.35254 54.4472C9.57506 59.696 16.5457 62.8875 23.3946 64.9874C25.0742 62.7198 26.5859 60.2842 27.8877 57.7226C25.4102 56.799 23.0586 55.6652 20.7911 54.3212C21.379 53.9016 21.9669 53.4398 22.5128 52.9776C36.202 59.2347 51.0291 59.2347 64.5505 52.9776C65.1383 53.4398 65.6843 53.9016 66.272 54.3212C64.0045 55.6652 61.6531 56.799 59.1753 57.7226C60.4772 60.2842 61.9889 62.7198 63.6687 64.9874C70.5131 62.8875 77.5259 59.696 84.7104 54.4472C86.5162 36.5592 81.8508 21.0223 72.4448 7.2909ZM29.7773 44.9153C25.662 44.9153 22.3027 41.1781 22.3027 36.6009C22.3027 32.0241 25.5781 28.2866 29.7773 28.2866C33.9344 28.2866 37.3356 32.0241 37.2516 36.6009C37.2516 41.1781 33.9344 44.9153 29.7773 44.9153ZM57.37 44.9153C53.2545 44.9153 49.891 41.1781 49.891 36.6009C49.891 32.0241 53.1707 28.2866 57.37 28.2866C61.5271 28.2866 64.9284 32.0241 64.8442 36.6009C64.8442 41.1781 61.5692 44.9153 57.37 44.9153Z" stroke="white" stroke-width="3.93671" stroke-linejoin="round"/>
</svg>
