<svg width="84" height="84" viewBox="0 0 84 84" fill="none" xmlns="http://www.w3.org/2000/svg">
<path d="M41.5465 3.46228C31.5527 3.36072 21.9275 7.23127 14.7861 14.2233C7.64481 21.2153 3.57177 30.7566 3.46216 40.7503C3.50067 48.6482 6.04131 56.3307 10.7192 62.6944C15.397 69.058 21.9714 73.7753 29.498 76.1688C31.4022 76.515 32.0947 75.3725 32.0947 74.3684C32.0947 73.3644 32.0947 71.1486 32.0947 68.0326C21.5003 70.283 19.2499 63.047 19.2499 63.047C18.5446 60.7754 17.0452 58.8336 15.026 57.5767C11.5637 55.2916 15.3029 55.3263 15.3029 55.3263C16.4997 55.4862 17.6446 55.9151 18.652 56.5807C19.6593 57.2462 20.5029 58.1312 21.1195 59.1693C22.1939 61.0324 23.9569 62.3992 26.0289 62.9755C28.101 63.5518 30.3165 63.2915 32.1985 62.2507C32.3921 60.3547 33.2507 58.5885 34.6221 57.2651C26.1743 56.3303 17.311 53.1451 17.311 38.8461C17.2355 35.1162 18.6137 31.5031 21.1541 28.7711C19.9971 25.5688 20.1337 22.0416 21.5349 18.9384C21.5349 18.9384 24.7548 17.9343 31.9216 22.7468C38.1601 21.0844 44.7252 21.0844 50.9638 22.7468C58.2344 17.9343 61.3504 18.9384 61.3504 18.9384C62.7516 22.0416 62.8882 25.5688 61.7312 28.7711C64.3307 31.4531 65.7836 35.0419 65.782 38.7769C65.782 53.1104 56.8495 56.2611 48.471 57.1959C49.3884 58.0866 50.0971 59.1695 50.546 60.3668C50.995 61.5641 51.1732 62.846 51.0676 64.1203V74.3338C51.0676 74.3338 51.7601 76.515 53.6643 76.1342C61.1695 73.7259 67.7218 69.0074 72.3852 62.6528C77.0485 56.2982 79.5845 48.6324 79.6309 40.7503C79.5213 30.7566 75.4482 21.2153 68.3069 14.2233C61.1656 7.23127 51.5403 3.36072 41.5465 3.46228Z" fill="white"/>
</svg>
