<?xml version="1.0" encoding="UTF-8"?>
<!DOCTYPE svg PUBLIC "-//W3C//DTD SVG 1.1//EN" "http://www.w3.org/Graphics/SVG/1.1/DTD/svg11.dtd">
<svg xmlns="http://www.w3.org/2000/svg" version="1.1" width="500px" height="500px" style="shape-rendering:geometricPrecision; text-rendering:geometricPrecision; image-rendering:optimizeQuality; fill-rule:evenodd; clip-rule:evenodd" xmlns:xlink="http://www.w3.org/1999/xlink">
<g><path style="opacity:0.004" fill="#00fffe" d="M 88.5,3.5 C 89.8333,4.16667 89.8333,4.16667 88.5,3.5 Z"/></g>
<g><path style="opacity:0.004" fill="#00fffe" d="M 404.5,4.5 C 405.833,5.16667 405.833,5.16667 404.5,4.5 Z"/></g>
<g><path style="opacity:0.004" fill="#00fffe" d="M 472.5,28.5 C 473.833,29.1667 473.833,29.1667 472.5,28.5 Z"/></g>
<g><path style="opacity:0.004" fill="#00fffe" d="M 213.5,32.5 C 214.833,33.1667 214.833,33.1667 213.5,32.5 Z"/></g>
<g><path style="opacity:0.004" fill="#00fffe" d="M 101.5,35.5 C 102.833,36.1667 102.833,36.1667 101.5,35.5 Z"/></g>
<g><path style="opacity:0.004" fill="#00fffe" d="M 24.5,36.5 C 25.8333,37.1667 25.8333,37.1667 24.5,36.5 Z"/></g>
<g><path style="opacity:0.004" fill="#00fffe" d="M 298.5,57.5 C 299.833,58.1667 299.833,58.1667 298.5,57.5 Z"/></g>
<g><path style="opacity:0.004" fill="#00fffe" d="M 318.5,59.5 C 319.833,60.1667 319.833,60.1667 318.5,59.5 Z"/></g>
<g><path style="opacity:0.004" fill="#00fffe" d="M 347.5,62.5 C 348.833,63.1667 348.833,63.1667 347.5,62.5 Z"/></g>
<g><path style="opacity:0.004" fill="#00fffe" d="M 270.5,70.5 C 271.833,71.1667 271.833,71.1667 270.5,70.5 Z"/></g>
<g><path style="opacity:0.004" fill="#00fffe" d="M 368.5,70.5 C 369.833,71.1667 369.833,71.1667 368.5,70.5 Z"/></g>
<g><path style="opacity:0.004" fill="#00fffe" d="M 491.5,83.5 C 492.833,84.1667 492.833,84.1667 491.5,83.5 Z"/></g>
<g><path style="opacity:0.004" fill="#00fffe" d="M 26.5,90.5 C 27.8333,91.1667 27.8333,91.1667 26.5,90.5 Z"/></g>
<g><path style="opacity:0.004" fill="#00fffe" d="M 2.5,91.5 C 3.83333,92.1667 3.83333,92.1667 2.5,91.5 Z"/></g>
<g><path style="opacity:0.004" fill="#00fffe" d="M 329.5,95.5 C 330.833,96.1667 330.833,96.1667 329.5,95.5 Z"/></g>
<g><path style="opacity:0.004" fill="#00fffe" d="M 330.5,100.5 C 331.833,101.167 331.833,101.167 330.5,100.5 Z"/></g>
<g><path style="opacity:0.004" fill="#00fffe" d="M 378.5,103.5 C 379.833,104.167 379.833,104.167 378.5,103.5 Z"/></g>
<g><path style="opacity:0.004" fill="#00fffe" d="M 406.5,107.5 C 407.833,108.167 407.833,108.167 406.5,107.5 Z"/></g>
<g><path style="opacity:0.004" fill="#00fffe" d="M 5.5,108.5 C 6.83333,109.167 6.83333,109.167 5.5,108.5 Z"/></g>
<g><path style="opacity:0.004" fill="#00fffe" d="M 20.5,108.5 C 21.8333,109.167 21.8333,109.167 20.5,108.5 Z"/></g>
<g><path style="opacity:0.004" fill="#00fffe" d="M 87.5,119.5 C 88.8333,120.167 88.8333,120.167 87.5,119.5 Z"/></g>
<g><path style="opacity:0.004" fill="#00fffe" d="M 411.5,131.5 C 412.833,132.167 412.833,132.167 411.5,131.5 Z"/></g>
<g><path style="opacity:1" fill="#020405" d="M 199.5,134.5 C 199.427,136.027 200.094,137.027 201.5,137.5C 205.845,141.847 209.845,146.514 213.5,151.5C 213.738,153.404 214.738,154.738 216.5,155.5C 223.846,163.516 230.846,171.849 237.5,180.5C 237.738,182.404 238.738,183.738 240.5,184.5C 242.853,186.86 244.853,189.527 246.5,192.5C 246.738,194.404 247.738,195.738 249.5,196.5C 250.5,196.833 251.167,197.5 251.5,198.5C 251.427,200.027 252.094,201.027 253.5,201.5C 254.5,201.833 255.167,202.5 255.5,203.5C 256.783,205.606 257.616,207.94 258,210.5C 259.47,211.267 260.97,211.933 262.5,212.5C 266.513,216.515 270.179,220.848 273.5,225.5C 274.547,230.05 277.214,233.383 281.5,235.5C 282.611,240.62 285.611,244.287 290.5,246.5C 291.08,248.749 292.413,250.415 294.5,251.5C 295.5,251.833 296.167,252.5 296.5,253.5C 296.738,255.404 297.738,256.738 299.5,257.5C 300.5,257.833 301.167,258.5 301.5,259.5C 301.427,261.027 302.094,262.027 303.5,262.5C 307.845,266.847 311.845,271.514 315.5,276.5C 315.427,278.027 316.094,279.027 317.5,279.5C 329.538,292.573 340.872,306.24 351.5,320.5C 351.427,322.027 352.094,323.027 353.5,323.5C 358.584,328.248 362.917,333.581 366.5,339.5C 366.5,348.833 366.5,358.167 366.5,367.5C 348.167,367.5 329.833,367.5 311.5,367.5C 309.457,366.421 308.124,364.754 307.5,362.5C 307.512,359.858 306.179,358.525 303.5,358.5C 280.121,330.457 257.121,302.123 234.5,273.5C 235.658,272.05 235.158,271.05 233,270.5C 231.991,268.975 231.491,267.308 231.5,265.5C 228.612,265.78 227.112,264.447 227,261.5C 225.385,260.614 223.885,259.614 222.5,258.5C 219.129,255.129 216.129,251.463 213.5,247.5C 213.611,246.883 213.944,246.383 214.5,246C 211.364,244.609 210.197,242.442 211,239.5C 209.989,240.337 208.822,240.67 207.5,240.5C 207.08,236.096 204.746,233.096 200.5,231.5C 185.365,213.907 170.699,195.907 156.5,177.5C 155.913,174.036 154.58,171.036 152.5,168.5C 151.5,168.5 150.5,168.5 149.5,168.5C 149.5,167.5 149.5,166.5 149.5,165.5C 148.5,165.5 147.5,165.5 146.5,165.5C 145.21,164.942 144.377,163.942 144,162.5C 143.182,152.922 143.349,143.422 144.5,134C 163.005,133.171 181.338,133.338 199.5,134.5 Z"/></g>
<g><path style="opacity:0.769" fill="#307d80" d="M 199.5,134.5 C 200.906,134.973 201.573,135.973 201.5,137.5C 200.094,137.027 199.427,136.027 199.5,134.5 Z"/></g>
<g><path style="opacity:1" fill="#010203" d="M 365.5,276.5 C 350.7,259.575 336.367,242.242 322.5,224.5C 322.573,222.973 321.906,221.973 320.5,221.5C 317.129,218.129 314.129,214.463 311.5,210.5C 311.918,209.778 312.584,209.278 313.5,209C 310.908,207.085 308.241,205.252 305.5,203.5C 303.738,202.738 302.738,201.404 302.5,199.5C 302.5,177.833 302.5,156.167 302.5,134.5C 323.833,134.5 345.167,134.5 366.5,134.5C 366.832,182.003 366.499,229.336 365.5,276.5 Z"/></g>
<g><path style="opacity:0.004" fill="#00fffe" d="M 69.5,136.5 C 70.8333,137.167 70.8333,137.167 69.5,136.5 Z"/></g>
<g><path style="opacity:0.004" fill="#00fffe" d="M 41.5,142.5 C 42.8333,143.167 42.8333,143.167 41.5,142.5 Z"/></g>
<g><path style="opacity:0.816" fill="#34777e" d="M 213.5,151.5 C 215.262,152.262 216.262,153.596 216.5,155.5C 214.738,154.738 213.738,153.404 213.5,151.5 Z"/></g>
<g><path style="opacity:0.2" fill="#549799" d="M 365.5,276.5 C 366.499,229.336 366.832,182.003 366.5,134.5C 345.167,134.5 323.833,134.5 302.5,134.5C 302.5,156.167 302.5,177.833 302.5,199.5C 301.503,177.673 301.169,155.673 301.5,133.5C 323.5,133.5 345.5,133.5 367.5,133.5C 367.667,181.834 367.5,230.168 367,278.5C 366.283,277.956 365.783,277.289 365.5,276.5 Z"/></g>
<g><path style="opacity:0.004" fill="#00fffe" d="M 230.5,155.5 C 231.833,156.167 231.833,156.167 230.5,155.5 Z"/></g>
<g><path style="opacity:0.004" fill="#00fffe" d="M 123.5,163.5 C 124.833,164.167 124.833,164.167 123.5,163.5 Z"/></g>
<g><path style="opacity:0.004" fill="#00fffe" d="M 403.5,164.5 C 404.833,165.167 404.833,165.167 403.5,164.5 Z"/></g>
<g><path style="opacity:1" fill="#1c383b" d="M 146.5,165.5 C 147.5,165.5 148.5,165.5 149.5,165.5C 149.5,166.5 149.5,167.5 149.5,168.5C 150.5,168.5 151.5,168.5 152.5,168.5C 154.58,171.036 155.913,174.036 156.5,177.5C 152.82,173.817 149.486,169.817 146.5,165.5 Z"/></g>
<g><path style="opacity:0.004" fill="#00fffe" d="M 487.5,175.5 C 488.833,176.167 488.833,176.167 487.5,175.5 Z"/></g>
<g><path style="opacity:0.004" fill="#00fffe" d="M 53.5,181.5 C 54.8333,182.167 54.8333,182.167 53.5,181.5 Z"/></g>
<g><path style="opacity:0.839" fill="#378080" d="M 237.5,180.5 C 239.262,181.262 240.262,182.596 240.5,184.5C 238.738,183.738 237.738,182.404 237.5,180.5 Z"/></g>
<g><path style="opacity:0.004" fill="#00fffe" d="M 468.5,181.5 C 469.833,182.167 469.833,182.167 468.5,181.5 Z"/></g>
<g><path style="opacity:0.816" fill="#337d7f" d="M 246.5,192.5 C 248.262,193.262 249.262,194.596 249.5,196.5C 247.738,195.738 246.738,194.404 246.5,192.5 Z"/></g>
<g><path style="opacity:0.004" fill="#00fffe" d="M 105.5,199.5 C 106.833,200.167 106.833,200.167 105.5,199.5 Z"/></g>
<g><path style="opacity:0.765" fill="#35797b" d="M 251.5,198.5 C 252.906,198.973 253.573,199.973 253.5,201.5C 252.094,201.027 251.427,200.027 251.5,198.5 Z"/></g>
<g><path style="opacity:0.004" fill="#00fffe" d="M 139.5,203.5 C 140.833,204.167 140.833,204.167 139.5,203.5 Z"/></g>
<g><path style="opacity:1" fill="#1a3b3d" d="M 305.5,203.5 C 308.241,205.252 310.908,207.085 313.5,209C 312.584,209.278 311.918,209.778 311.5,210.5C 308.781,208.781 306.781,206.447 305.5,203.5 Z"/></g>
<g><path style="opacity:1" fill="#1f4145" d="M 255.5,203.5 C 258.209,206.208 260.542,209.208 262.5,212.5C 260.97,211.933 259.47,211.267 258,210.5C 257.616,207.94 256.783,205.606 255.5,203.5 Z"/></g>
<g><path style="opacity:0.004" fill="#00fffe" d="M 17.5,210.5 C 18.8333,211.167 18.8333,211.167 17.5,210.5 Z"/></g>
<g><path style="opacity:0.004" fill="#00fffe" d="M 302.5,216.5 C 303.833,217.167 303.833,217.167 302.5,216.5 Z"/></g>
<g><path style="opacity:0.012" fill="#44908f" d="M 320.5,221.5 C 321.906,221.973 322.573,222.973 322.5,224.5C 321.094,224.027 320.427,223.027 320.5,221.5 Z"/></g>
<g><path style="opacity:0.004" fill="#00fffe" d="M 98.5,224.5 C 99.8333,225.167 99.8333,225.167 98.5,224.5 Z"/></g>
<g><path style="opacity:0.024" fill="#5fcbcc" d="M 145.5,225.5 C 144.662,225.842 144.328,226.508 144.5,227.5C 143.224,226.614 143.224,225.614 144.5,224.5C 145.107,224.624 145.44,224.957 145.5,225.5 Z"/></g>
<g><path style="opacity:0.812" fill="#3a848b" d="M 145.5,225.5 C 147.262,226.262 148.262,227.596 148.5,229.5C 146.738,228.738 145.738,227.404 145.5,225.5 Z"/></g>
<g><path style="opacity:0.998" fill="#1c3c41" d="M 273.5,225.5 C 276.54,228.539 279.206,231.873 281.5,235.5C 277.214,233.383 274.547,230.05 273.5,225.5 Z"/></g>
<g><path style="opacity:0.949" fill="#306969" d="M 148.5,229.5 C 150.587,230.585 151.92,232.251 152.5,234.5C 150.413,233.415 149.08,231.749 148.5,229.5 Z"/></g>
<g><path style="opacity:1" fill="#050808" d="M 145.5,225.5 C 145.738,227.404 146.738,228.738 148.5,229.5C 149.08,231.749 150.413,233.415 152.5,234.5C 153.5,234.833 154.167,235.5 154.5,236.5C 154.738,238.404 155.738,239.738 157.5,240.5C 158.08,242.749 159.413,244.415 161.5,245.5C 162.5,245.833 163.167,246.5 163.5,247.5C 163.427,249.027 164.094,250.027 165.5,250.5C 166.5,250.833 167.167,251.5 167.5,252.5C 167.738,254.404 168.738,255.738 170.5,256.5C 171.5,256.833 172.167,257.5 172.5,258.5C 172.427,260.027 173.094,261.027 174.5,261.5C 183.205,270.574 191.205,280.24 198.5,290.5C 198.427,292.027 199.094,293.027 200.5,293.5C 201.5,293.833 202.167,294.5 202.5,295.5C 202.738,297.404 203.738,298.738 205.5,299.5C 205.685,301.196 206.519,302.529 208,303.5C 208.5,324.831 208.667,346.164 208.5,367.5C 187.167,367.5 165.833,367.5 144.5,367.5C 143.179,320.973 143.179,274.306 144.5,227.5C 144.328,226.508 144.662,225.842 145.5,225.5 Z"/></g>
<g><path style="opacity:0.004" fill="#00fffe" d="M 47.5,235.5 C 48.8333,236.167 48.8333,236.167 47.5,235.5 Z"/></g>
<g><path style="opacity:0.995" fill="#1d3d3f" d="M 200.5,231.5 C 204.746,233.096 207.08,236.096 207.5,240.5C 204.791,237.792 202.458,234.792 200.5,231.5 Z"/></g>
<g><path style="opacity:0.808" fill="#2f7f7d" d="M 154.5,236.5 C 156.262,237.262 157.262,238.596 157.5,240.5C 155.738,239.738 154.738,238.404 154.5,236.5 Z"/></g>
<g><path style="opacity:0.004" fill="#00fffe" d="M 467.5,237.5 C 468.833,238.167 468.833,238.167 467.5,237.5 Z"/></g>
<g><path style="opacity:1" fill="#1c3b3c" d="M 281.5,235.5 C 284.871,238.871 287.871,242.537 290.5,246.5C 285.611,244.287 282.611,240.62 281.5,235.5 Z"/></g>
<g><path style="opacity:0.004" fill="#00fffe" d="M 429.5,239.5 C 430.833,240.167 430.833,240.167 429.5,239.5 Z"/></g>
<g><path style="opacity:1" fill="#1e393a" d="M 213.5,247.5 C 210.8,245.766 208.8,243.432 207.5,240.5C 208.822,240.67 209.989,240.337 211,239.5C 210.197,242.442 211.364,244.609 214.5,246C 213.944,246.383 213.611,246.883 213.5,247.5 Z"/></g>
<g><path style="opacity:0.945" fill="#2e6865" d="M 157.5,240.5 C 159.587,241.585 160.92,243.251 161.5,245.5C 159.413,244.415 158.08,242.749 157.5,240.5 Z"/></g>
<g><path style="opacity:0.961" fill="#296266" d="M 290.5,246.5 C 292.587,247.585 293.92,249.251 294.5,251.5C 292.413,250.415 291.08,248.749 290.5,246.5 Z"/></g>
<g><path style="opacity:0.761" fill="#2f797b" d="M 163.5,247.5 C 164.906,247.973 165.573,248.973 165.5,250.5C 164.094,250.027 163.427,249.027 163.5,247.5 Z"/></g>
<g><path style="opacity:0.804" fill="#307a7c" d="M 167.5,252.5 C 169.262,253.262 170.262,254.596 170.5,256.5C 168.738,255.738 167.738,254.404 167.5,252.5 Z"/></g>
<g><path style="opacity:0.804" fill="#2e7376" d="M 296.5,253.5 C 298.262,254.262 299.262,255.596 299.5,257.5C 297.738,256.738 296.738,255.404 296.5,253.5 Z"/></g>
<g><path style="opacity:0.525" fill="#408385" d="M 172.5,258.5 C 173.906,258.973 174.573,259.973 174.5,261.5C 173.094,261.027 172.427,260.027 172.5,258.5 Z"/></g>
<g><path style="opacity:0.761" fill="#317a7b" d="M 301.5,259.5 C 302.906,259.973 303.573,260.973 303.5,262.5C 302.094,262.027 301.427,261.027 301.5,259.5 Z"/></g>
<g><path style="opacity:0.004" fill="#00fffe" d="M 322.5,261.5 C 323.833,262.167 323.833,262.167 322.5,261.5 Z"/></g>
<g><path style="opacity:0.004" fill="#00fffe" d="M 78.5,264.5 C 79.8333,265.167 79.8333,265.167 78.5,264.5 Z"/></g>
<g><path style="opacity:1" fill="#1b3a3f" d="M 222.5,258.5 C 223.885,259.614 225.385,260.614 227,261.5C 227.112,264.447 228.612,265.78 231.5,265.5C 231.491,267.308 231.991,268.975 233,270.5C 235.158,271.05 235.658,272.05 234.5,273.5C 229.747,269.083 225.747,264.083 222.5,258.5 Z"/></g>
<g><path style="opacity:0.004" fill="#00fffe" d="M 189.5,271.5 C 190.833,272.167 190.833,272.167 189.5,271.5 Z"/></g>
<g><path style="opacity:0.714" fill="#3a8385" d="M 315.5,276.5 C 316.906,276.973 317.573,277.973 317.5,279.5C 316.094,279.027 315.427,278.027 315.5,276.5 Z"/></g>
<g><path style="opacity:0.004" fill="#00fffe" d="M 76.5,290.5 C 77.8333,291.167 77.8333,291.167 76.5,290.5 Z"/></g>
<g><path style="opacity:0.761" fill="#34787b" d="M 198.5,290.5 C 199.906,290.973 200.573,291.973 200.5,293.5C 199.094,293.027 198.427,292.027 198.5,290.5 Z"/></g>
<g><path style="opacity:0.808" fill="#338384" d="M 202.5,295.5 C 204.262,296.262 205.262,297.596 205.5,299.5C 203.738,298.738 202.738,297.404 202.5,295.5 Z"/></g>
<g><path style="opacity:0.004" fill="#00fffe" d="M 61.5,308.5 C 62.8333,309.167 62.8333,309.167 61.5,308.5 Z"/></g>
<g><path style="opacity:0.662" fill="#247b7e" d="M 205.5,299.5 C 206.794,300.29 207.961,301.29 209,302.5C 210.43,324.15 210.764,345.816 210,367.5C 188.069,368.831 166.236,368.831 144.5,367.5C 165.833,367.5 187.167,367.5 208.5,367.5C 208.667,346.164 208.5,324.831 208,303.5C 206.519,302.529 205.685,301.196 205.5,299.5 Z"/></g>
<g><path style="opacity:0.004" fill="#00fffe" d="M 420.5,317.5 C 421.833,318.167 421.833,318.167 420.5,317.5 Z"/></g>
<g><path style="opacity:0.004" fill="#00fffe" d="M 134.5,321.5 C 135.833,322.167 135.833,322.167 134.5,321.5 Z"/></g>
<g><path style="opacity:0.812" fill="#2f7375" d="M 351.5,320.5 C 352.906,320.973 353.573,321.973 353.5,323.5C 352.094,323.027 351.427,322.027 351.5,320.5 Z"/></g>
<g><path style="opacity:0.004" fill="#00fffe" d="M 108.5,326.5 C 109.833,327.167 109.833,327.167 108.5,326.5 Z"/></g>
<g><path style="opacity:0.004" fill="#00fffe" d="M 456.5,329.5 C 457.833,330.167 457.833,330.167 456.5,329.5 Z"/></g>
<g><path style="opacity:0.004" fill="#00fffe" d="M 62.5,334.5 C 63.8333,335.167 63.8333,335.167 62.5,334.5 Z"/></g>
<g><path style="opacity:0.004" fill="#00fffe" d="M 448.5,340.5 C 449.833,341.167 449.833,341.167 448.5,340.5 Z"/></g>
<g><path style="opacity:1" fill="#1e4d4f" d="M 303.5,358.5 C 306.179,358.525 307.512,359.858 307.5,362.5C 305.833,361.5 304.5,360.167 303.5,358.5 Z"/></g>
<g><path style="opacity:0.004" fill="#00fffe" d="M 417.5,363.5 C 418.833,364.167 418.833,364.167 417.5,363.5 Z"/></g>
<g><path style="opacity:0.004" fill="#00fffe" d="M 23.5,367.5 C 24.8333,368.167 24.8333,368.167 23.5,367.5 Z"/></g>
<g><path style="opacity:0.512" fill="#368084" d="M 366.5,339.5 C 367.494,348.986 367.827,358.652 367.5,368.5C 348.659,368.83 329.993,368.497 311.5,367.5C 329.833,367.5 348.167,367.5 366.5,367.5C 366.5,358.167 366.5,348.833 366.5,339.5 Z"/></g>
<g><path style="opacity:0.004" fill="#00fffe" d="M 214.5,369.5 C 215.833,370.167 215.833,370.167 214.5,369.5 Z"/></g>
<g><path style="opacity:0.004" fill="#00fffe" d="M 462.5,381.5 C 463.833,382.167 463.833,382.167 462.5,381.5 Z"/></g>
<g><path style="opacity:0.004" fill="#00fffe" d="M 77.5,400.5 C 78.8333,401.167 78.8333,401.167 77.5,400.5 Z"/></g>
<g><path style="opacity:0.004" fill="#00fffe" d="M 477.5,400.5 C 478.833,401.167 478.833,401.167 477.5,400.5 Z"/></g>
<g><path style="opacity:0.004" fill="#00fffe" d="M 326.5,405.5 C 327.833,406.167 327.833,406.167 326.5,405.5 Z"/></g>
<g><path style="opacity:0.004" fill="#00fffe" d="M 194.5,407.5 C 195.833,408.167 195.833,408.167 194.5,407.5 Z"/></g>
<g><path style="opacity:0.004" fill="#00fffe" d="M 279.5,407.5 C 280.833,408.167 280.833,408.167 279.5,407.5 Z"/></g>
<g><path style="opacity:0.004" fill="#00fffe" d="M 34.5,409.5 C 35.8333,410.167 35.8333,410.167 34.5,409.5 Z"/></g>
<g><path style="opacity:0.004" fill="#00fffe" d="M 208.5,409.5 C 209.833,410.167 209.833,410.167 208.5,409.5 Z"/></g>
<g><path style="opacity:0.004" fill="#00fffe" d="M 421.5,417.5 C 422.833,418.167 422.833,418.167 421.5,417.5 Z"/></g>
<g><path style="opacity:0.004" fill="#00fffe" d="M 81.5,426.5 C 82.8333,427.167 82.8333,427.167 81.5,426.5 Z"/></g>
<g><path style="opacity:0.004" fill="#00fffe" d="M 236.5,427.5 C 237.833,428.167 237.833,428.167 236.5,427.5 Z"/></g>
<g><path style="opacity:0.004" fill="#00fffe" d="M 332.5,434.5 C 333.833,435.167 333.833,435.167 332.5,434.5 Z"/></g>
<g><path style="opacity:0.004" fill="#00fffe" d="M 188.5,437.5 C 189.833,438.167 189.833,438.167 188.5,437.5 Z"/></g>
<g><path style="opacity:0.004" fill="#00fffe" d="M 2.5,441.5 C 3.83333,442.167 3.83333,442.167 2.5,441.5 Z"/></g>
<g><path style="opacity:0.004" fill="#00fffe" d="M 197.5,449.5 C 198.833,450.167 198.833,450.167 197.5,449.5 Z"/></g>
<g><path style="opacity:0.004" fill="#00fffe" d="M 211.5,455.5 C 212.833,456.167 212.833,456.167 211.5,455.5 Z"/></g>
<g><path style="opacity:0.004" fill="#00fffe" d="M 312.5,462.5 C 313.833,463.167 313.833,463.167 312.5,462.5 Z"/></g>
<g><path style="opacity:0.004" fill="#00fffe" d="M 88.5,468.5 C 89.8333,469.167 89.8333,469.167 88.5,468.5 Z"/></g>
<g><path style="opacity:0.004" fill="#00fffe" d="M 33.5,469.5 C 34.8333,470.167 34.8333,470.167 33.5,469.5 Z"/></g>
<g><path style="opacity:0.004" fill="#00fffe" d="M 281.5,471.5 C 282.833,472.167 282.833,472.167 281.5,471.5 Z"/></g>
<g><path style="opacity:0.004" fill="#00fffe" d="M 487.5,472.5 C 488.833,473.167 488.833,473.167 487.5,472.5 Z"/></g>
<g><path style="opacity:0.004" fill="#00fffe" d="M 229.5,476.5 C 230.833,477.167 230.833,477.167 229.5,476.5 Z"/></g>
<g><path style="opacity:0.004" fill="#00fffe" d="M 435.5,476.5 C 436.833,477.167 436.833,477.167 435.5,476.5 Z"/></g>
<g><path style="opacity:0.004" fill="#00fffe" d="M 38.5,478.5 C 39.8333,479.167 39.8333,479.167 38.5,478.5 Z"/></g>
</svg>
