<?xml version="1.0" encoding="UTF-8"?>
<!DOCTYPE svg PUBLIC "-//W3C//DTD SVG 1.1//EN" "http://www.w3.org/Graphics/SVG/1.1/DTD/svg11.dtd">
<svg xmlns="http://www.w3.org/2000/svg" version="1.1" width="236px" height="236px" style="shape-rendering:geometricPrecision; text-rendering:geometricPrecision; image-rendering:optimizeQuality; fill-rule:evenodd; clip-rule:evenodd" xmlns:xlink="http://www.w3.org/1999/xlink">
<g><path style="opacity:1" fill="#000101" d="M 6.5,-0.5 C 24.8333,-0.5 43.1667,-0.5 61.5,-0.5C 61.8333,0.5 62.5,1.16667 63.5,1.5C 64.4194,4.08917 66.086,6.08917 68.5,7.5C 72.7532,14.0897 77.7532,20.0897 83.5,25.5C 88.7077,34.0462 95.041,41.7128 102.5,48.5C 105.69,55.0258 110.024,60.6924 115.5,65.5C 116.419,68.0892 118.086,70.0892 120.5,71.5C 124.083,77.4187 128.416,82.752 133.5,87.5C 135.882,92.2476 139.216,96.2476 143.5,99.5C 144.08,101.749 145.413,103.415 147.5,104.5C 149.785,108.727 152.785,112.393 156.5,115.5C 158.785,119.727 161.785,123.393 165.5,126.5C 172.418,136.421 180.084,145.754 188.5,154.5C 193.546,162.577 199.546,169.91 206.5,176.5C 208.785,180.727 211.785,184.393 215.5,187.5C 216.419,190.089 218.086,192.089 220.5,193.5C 222.423,196.603 224.59,199.603 227,202.5C 227.5,212.161 227.666,221.828 227.5,231.5C 209.497,231.667 191.497,231.5 173.5,231C 117.641,163.442 62.1412,95.609 7,27.5C 6.50021,18.1726 6.33355,8.83928 6.5,-0.5 Z"/></g>
<g><path style="opacity:0.016" fill="#cedbdc" d="M 61.5,-0.5 C 62.1667,-0.5 62.8333,-0.5 63.5,-0.5C 63.5,0.166667 63.5,0.833333 63.5,1.5C 62.5,1.16667 61.8333,0.5 61.5,-0.5 Z"/></g>
<g><path style="opacity:1" fill="#000101" d="M 164.5,-0.5 C 185.5,-0.5 206.5,-0.5 227.5,-0.5C 227.832,46.3363 227.499,93.003 226.5,139.5C 206.213,114.041 185.713,88.7076 165,63.5C 164.5,42.1693 164.333,20.8359 164.5,-0.5 Z"/></g>
<g><path style="opacity:0.121" fill="#e6ecec" d="M 228.5,-0.5 C 228.833,-0.5 229.167,-0.5 229.5,-0.5C 229.833,47.1713 229.5,94.838 228.5,142.5C 227.478,142.145 226.811,141.478 226.5,140.5C 228.495,93.8452 229.162,46.8452 228.5,-0.5 Z"/></g>
<g><path style="opacity:0.533" fill="#b5c7c7" d="M 63.5,1.5 C 65.914,2.91083 67.5806,4.91083 68.5,7.5C 66.086,6.08917 64.4194,4.08917 63.5,1.5 Z"/></g>
<g><path style="opacity:0.435" fill="#b6c9ca" d="M 68.5,7.5 C 74.2468,12.9103 79.2468,18.9103 83.5,25.5C 77.7532,20.0897 72.7532,14.0897 68.5,7.5 Z"/></g>
<g><path style="opacity:0.678" fill="#6b8384" d="M 227.5,-0.5 C 227.833,-0.5 228.167,-0.5 228.5,-0.5C 229.162,46.8452 228.495,93.8452 226.5,140.5C 226.5,140.167 226.5,139.833 226.5,139.5C 227.499,93.003 227.832,46.3363 227.5,-0.5 Z"/></g>
<g><path style="opacity:0.004" fill="#fdfffe" d="M 92.5,19.5 C 93.8333,20.1667 93.8333,20.1667 92.5,19.5 Z"/></g>
<g><path style="opacity:0.635" fill="#b0c1c2" d="M 83.5,25.5 C 90.2041,32.8698 96.5374,40.5364 102.5,48.5C 95.041,41.7128 88.7077,34.0462 83.5,25.5 Z"/></g>
<g><path style="opacity:0.369" fill="#b5c6c7" d="M 102.5,48.5 C 107.21,53.8767 111.543,59.5434 115.5,65.5C 110.024,60.6924 105.69,55.0258 102.5,48.5 Z"/></g>
<g><path style="opacity:0.004" fill="#fdfffe" d="M 1.5,67.5 C 2.83333,68.1667 2.83333,68.1667 1.5,67.5 Z"/></g>
<g><path style="opacity:0.502" fill="#bccdd0" d="M 115.5,65.5 C 117.914,66.9108 119.581,68.9108 120.5,71.5C 118.086,70.0892 116.419,68.0892 115.5,65.5 Z"/></g>
<g><path style="opacity:0.467" fill="#b3c4c4" d="M 120.5,71.5 C 125.584,76.248 129.917,81.5813 133.5,87.5C 128.416,82.752 124.083,77.4187 120.5,71.5 Z"/></g>
<g><path style="opacity:0.004" fill="#fdfffe" d="M 164.5,80.5 C 165.833,81.1667 165.833,81.1667 164.5,80.5 Z"/></g>
<g><path style="opacity:0.533" fill="#b3c5c6" d="M 133.5,87.5 C 137.308,91.1216 140.641,95.1216 143.5,99.5C 139.216,96.2476 135.882,92.2476 133.5,87.5 Z"/></g>
<g><path style="opacity:0.322" fill="#b3c2c3" d="M 162.5,-0.5 C 163.167,-0.5 163.833,-0.5 164.5,-0.5C 164.333,20.8359 164.5,42.1693 165,63.5C 185.713,88.7076 206.213,114.041 226.5,139.5C 226.5,139.833 226.5,140.167 226.5,140.5C 205.198,115.023 184.031,89.3562 163,63.5C 162.5,42.1693 162.333,20.8359 162.5,-0.5 Z"/></g>
<g><path style="opacity:1" fill="#010202" d="M 10.5,93.5 C 11.0798,95.7488 12.4131,97.4154 14.5,98.5C 18.0826,104.419 22.4159,109.752 27.5,114.5C 31.0826,120.419 35.4159,125.752 40.5,130.5C 41.4194,133.089 43.086,135.089 45.5,136.5C 47.4854,140.456 49.9854,144.122 53,147.5C 57.6991,153.029 62.5324,158.362 67.5,163.5C 67.6854,165.196 68.5187,166.529 70,167.5C 70.5,188.831 70.6666,210.164 70.5,231.5C 49.1667,231.5 27.8333,231.5 6.5,231.5C 6.33334,184.499 6.50001,137.499 7,90.5C 8.0391,91.7101 9.20577,92.7101 10.5,93.5 Z"/></g>
<g><path style="opacity:0.431" fill="#c0d2d2" d="M 10.5,93.5 C 12.5869,94.5846 13.9202,96.2512 14.5,98.5C 12.4131,97.4154 11.0798,95.7488 10.5,93.5 Z"/></g>
<g><path style="opacity:0.502" fill="#b6c8c8" d="M 14.5,98.5 C 19.5841,103.248 23.9174,108.581 27.5,114.5C 22.4159,109.752 18.0826,104.419 14.5,98.5 Z"/></g>
<g><path style="opacity:0.435" fill="#bfcfcf" d="M 143.5,99.5 C 145.587,100.585 146.92,102.251 147.5,104.5C 145.413,103.415 144.08,101.749 143.5,99.5 Z"/></g>
<g><path style="opacity:0.506" fill="#b4c8c9" d="M 147.5,104.5 C 151.215,107.607 154.215,111.273 156.5,115.5C 152.785,112.393 149.785,108.727 147.5,104.5 Z"/></g>
<g><path style="opacity:0.502" fill="#b6c7c8" d="M 27.5,114.5 C 32.5841,119.248 36.9174,124.581 40.5,130.5C 35.4159,125.752 31.0826,120.419 27.5,114.5 Z"/></g>
<g><path style="opacity:0.506" fill="#b4c6c7" d="M 156.5,115.5 C 160.215,118.607 163.215,122.273 165.5,126.5C 161.785,123.393 158.785,119.727 156.5,115.5 Z"/></g>
<g><path style="opacity:0.412" fill="#cbdcdc" d="M 10.5,93.5 C 9.20577,92.7101 8.0391,91.7101 7,90.5C 6.50001,137.499 6.33334,184.499 6.5,231.5C 6.5,231.833 6.5,232.167 6.5,232.5C 5.88258,232.389 5.38258,232.056 5,231.5C 4.52116,184.407 4.35449,137.407 4.5,90.5C 4.83333,89.5 5.5,88.8333 6.5,88.5C 8.6114,89.6046 9.94473,91.2712 10.5,93.5 Z"/></g>
<g><path style="opacity:0.004" fill="#fdfffe" d="M 184.5,125.5 C 185.833,126.167 185.833,126.167 184.5,125.5 Z"/></g>
<g><path style="opacity:0.396" fill="#bccfd0" d="M 40.5,130.5 C 42.914,131.911 44.5806,133.911 45.5,136.5C 43.086,135.089 41.4194,133.089 40.5,130.5 Z"/></g>
<g><path style="opacity:0.004" fill="#fdfffe" d="M 51.5,135.5 C 52.8333,136.167 52.8333,136.167 51.5,135.5 Z"/></g>
<g><path style="opacity:0.282" fill="#b6c7c8" d="M 165.5,126.5 C 173.916,135.246 181.582,144.579 188.5,154.5C 180.084,145.754 172.418,136.421 165.5,126.5 Z"/></g>
<g><path style="opacity:0.431" fill="#b3c4c5" d="M 45.5,136.5 C 53.5836,144.914 60.917,153.914 67.5,163.5C 62.5324,158.362 57.6991,153.029 53,147.5C 49.9854,144.122 47.4854,140.456 45.5,136.5 Z"/></g>
<g><path style="opacity:0.498" fill="#b2c3c4" d="M 188.5,154.5 C 194.976,161.457 200.976,168.79 206.5,176.5C 199.546,169.91 193.546,162.577 188.5,154.5 Z"/></g>
<g><path style="opacity:0.529" fill="#aec1c1" d="M 206.5,176.5 C 210.215,179.607 213.215,183.273 215.5,187.5C 211.785,184.393 208.785,180.727 206.5,176.5 Z"/></g>
<g><path style="opacity:0.259" fill="#c7d7d8" d="M 4.5,-0.5 C 5.16667,-0.5 5.83333,-0.5 6.5,-0.5C 6.33355,8.83928 6.50021,18.1726 7,27.5C 62.1412,95.609 117.641,163.442 173.5,231C 191.497,231.5 209.497,231.667 227.5,231.5C 227.5,231.833 227.5,232.167 227.5,232.5C 209.164,232.667 190.83,232.5 172.5,232C 116.641,164.442 61.1412,96.609 6,28.5C 4.55247,18.9393 4.05247,9.27265 4.5,-0.5 Z"/></g>
<g><path style="opacity:0.471" fill="#b5c7c7" d="M 215.5,187.5 C 217.914,188.911 219.581,190.911 220.5,193.5C 218.086,192.089 216.419,190.089 215.5,187.5 Z"/></g>
<g><path style="opacity:0.396" fill="#99adaf" d="M 220.5,193.5 C 224.126,196.095 226.792,199.428 228.5,203.5C 228.827,213.015 228.494,222.348 227.5,231.5C 227.666,221.828 227.5,212.161 227,202.5C 224.59,199.603 222.423,196.603 220.5,193.5 Z"/></g>
<g><path style="opacity:0.122" fill="#e7ecec" d="M 228.5,203.5 C 229.166,208.155 229.499,212.988 229.5,218C 229.494,223.216 228.827,228.049 227.5,232.5C 227.5,232.167 227.5,231.833 227.5,231.5C 228.494,222.348 228.827,213.015 228.5,203.5 Z"/></g>
<g><path style="opacity:0.515" fill="#accbcd" d="M 67.5,163.5 C 68.7942,164.29 69.9609,165.29 71,166.5C 72.4302,188.15 72.7635,209.816 72,231.5C 50.242,232.494 28.4087,232.827 6.5,232.5C 6.5,232.167 6.5,231.833 6.5,231.5C 27.8333,231.5 49.1667,231.5 70.5,231.5C 70.6666,210.164 70.5,188.831 70,167.5C 68.5187,166.529 67.6854,165.196 67.5,163.5 Z"/></g>
<g><path style="opacity:0.004" fill="#fdfffe" d="M 76.5,233.5 C 77.8333,234.167 77.8333,234.167 76.5,233.5 Z"/></g>
</svg>
